<svg width="124" height="25" viewBox="0 0 124 25" fill="none" xmlns="http://www.w3.org/2000/svg">
<path d="M29.54 20V5.1H31.44L39.8 16.64L38.9 16.78V5.1H41.24V20H39.34L31.04 8.38L31.9 8.22V20H29.54ZM49.1852 20.24C48.1052 20.24 47.1452 19.9933 46.3052 19.5C45.4785 18.9933 44.8318 18.3133 44.3652 17.46C43.8985 16.5933 43.6652 15.6267 43.6652 14.56C43.6652 13.4667 43.8985 12.5 44.3652 11.66C44.8452 10.82 45.4852 10.16 46.2852 9.68C47.0852 9.18667 47.9918 8.94 49.0052 8.94C49.8185 8.94 50.5452 9.08 51.1852 9.36C51.8252 9.64 52.3652 10.0267 52.8052 10.52C53.2452 11 53.5785 11.5533 53.8052 12.18C54.0452 12.8067 54.1652 13.4733 54.1652 14.18C54.1652 14.3533 54.1585 14.5333 54.1452 14.72C54.1318 14.9067 54.1052 15.08 54.0652 15.24H45.4452V13.44H52.7852L51.7052 14.26C51.8385 13.6067 51.7918 13.0267 51.5652 12.52C51.3518 12 51.0185 11.5933 50.5652 11.3C50.1252 10.9933 49.6052 10.84 49.0052 10.84C48.4052 10.84 47.8718 10.9933 47.4052 11.3C46.9385 11.5933 46.5785 12.02 46.3252 12.58C46.0718 13.1267 45.9718 13.7933 46.0252 14.58C45.9585 15.3133 46.0585 15.9533 46.3252 16.5C46.6052 17.0467 46.9918 17.4733 47.4852 17.78C47.9918 18.0867 48.5652 18.24 49.2052 18.24C49.8585 18.24 50.4118 18.0933 50.8652 17.8C51.3318 17.5067 51.6985 17.1267 51.9652 16.66L53.8052 17.56C53.5918 18.0667 53.2585 18.5267 52.8052 18.94C52.3652 19.34 51.8318 19.66 51.2052 19.9C50.5918 20.1267 49.9185 20.24 49.1852 20.24ZM58.9908 20L55.2708 9.18H57.6708L60.5108 17.8H59.6708L62.5708 9.18H64.6308L67.5108 17.8H66.6708L69.5308 9.18H71.9308L68.1908 20H66.1508L63.2308 11.18H63.9708L61.0508 20H58.9908ZM77.4802 20.24C76.3735 20.24 75.4002 19.9667 74.5602 19.42C73.7335 18.8733 73.1535 18.14 72.8202 17.22L74.5602 16.4C74.8535 17.0133 75.2535 17.5 75.7602 17.86C76.2802 18.22 76.8535 18.4 77.4802 18.4C78.0135 18.4 78.4468 18.28 78.7802 18.04C79.1135 17.8 79.2802 17.4733 79.2802 17.06C79.2802 16.7933 79.2068 16.58 79.0602 16.42C78.9135 16.2467 78.7268 16.1067 78.5002 16C78.2868 15.8933 78.0668 15.8133 77.8402 15.76L76.1402 15.28C75.2068 15.0133 74.5068 14.6133 74.0402 14.08C73.5868 13.5333 73.3602 12.9 73.3602 12.18C73.3602 11.5267 73.5268 10.96 73.8602 10.48C74.1935 9.98667 74.6535 9.60667 75.2402 9.34C75.8268 9.07333 76.4868 8.94 77.2202 8.94C78.2068 8.94 79.0868 9.18667 79.8602 9.68C80.6335 10.16 81.1802 10.8333 81.5002 11.7L79.7602 12.52C79.5468 12 79.2068 11.5867 78.7402 11.28C78.2868 10.9733 77.7735 10.82 77.2002 10.82C76.7068 10.82 76.3135 10.94 76.0202 11.18C75.7268 11.4067 75.5802 11.7067 75.5802 12.08C75.5802 12.3333 75.6468 12.5467 75.7802 12.72C75.9135 12.88 76.0868 13.0133 76.3002 13.12C76.5135 13.2133 76.7335 13.2933 76.9602 13.36L78.7202 13.88C79.6135 14.1333 80.3002 14.5333 80.7802 15.08C81.2602 15.6133 81.5002 16.2533 81.5002 17C81.5002 17.64 81.3268 18.2067 80.9802 18.7C80.6468 19.18 80.1802 19.56 79.5802 19.84C78.9802 20.1067 78.2802 20.24 77.4802 20.24Z" fill="#1677FF"/>
<path d="M82.6145 20L87.8545 5.1H90.7745L96.0145 20H93.4945L92.3545 16.66H86.2945L85.1345 20H82.6145ZM86.9745 14.56H91.6345L88.9945 6.76H89.6545L86.9745 14.56ZM97.5622 24V9.18H99.7222V11.42L99.4622 10.9C99.8622 10.2867 100.396 9.80667 101.062 9.46C101.729 9.11333 102.489 8.94 103.342 8.94C104.369 8.94 105.289 9.18667 106.102 9.68C106.929 10.1733 107.576 10.8467 108.042 11.7C108.522 12.5533 108.762 13.5133 108.762 14.58C108.762 15.6467 108.522 16.6067 108.042 17.46C107.576 18.3133 106.936 18.9933 106.122 19.5C105.309 19.9933 104.382 20.24 103.342 20.24C102.502 20.24 101.736 20.0667 101.042 19.72C100.362 19.3733 99.8355 18.8733 99.4622 18.22L99.8222 17.8V24H97.5622ZM103.122 18.14C103.762 18.14 104.329 17.9867 104.822 17.68C105.316 17.3733 105.702 16.9533 105.982 16.42C106.276 15.8733 106.422 15.26 106.422 14.58C106.422 13.9 106.276 13.2933 105.982 12.76C105.702 12.2267 105.316 11.8067 104.822 11.5C104.329 11.1933 103.762 11.04 103.122 11.04C102.496 11.04 101.929 11.1933 101.422 11.5C100.929 11.8067 100.536 12.2267 100.242 12.76C99.9622 13.2933 99.8222 13.9 99.8222 14.58C99.8222 15.26 99.9622 15.8733 100.242 16.42C100.536 16.9533 100.929 17.3733 101.422 17.68C101.929 17.9867 102.496 18.14 103.122 18.14ZM110.961 24V9.18H113.121V11.42L112.861 10.9C113.261 10.2867 113.794 9.80667 114.461 9.46C115.127 9.11333 115.887 8.94 116.741 8.94C117.767 8.94 118.687 9.18667 119.501 9.68C120.327 10.1733 120.974 10.8467 121.441 11.7C121.921 12.5533 122.161 13.5133 122.161 14.58C122.161 15.6467 121.921 16.6067 121.441 17.46C120.974 18.3133 120.334 18.9933 119.521 19.5C118.707 19.9933 117.781 20.24 116.741 20.24C115.901 20.24 115.134 20.0667 114.441 19.72C113.761 19.3733 113.234 18.8733 112.861 18.22L113.221 17.8V24H110.961ZM116.521 18.14C117.161 18.14 117.727 17.9867 118.221 17.68C118.714 17.3733 119.101 16.9533 119.381 16.42C119.674 15.8733 119.821 15.26 119.821 14.58C119.821 13.9 119.674 13.2933 119.381 12.76C119.101 12.2267 118.714 11.8067 118.221 11.5C117.727 11.1933 117.161 11.04 116.521 11.04C115.894 11.04 115.327 11.1933 114.821 11.5C114.327 11.8067 113.934 12.2267 113.641 12.76C113.361 13.2933 113.221 13.9 113.221 14.58C113.221 15.26 113.361 15.8733 113.641 16.42C113.934 16.9533 114.327 17.3733 114.821 17.68C115.327 17.9867 115.894 18.14 116.521 18.14Z" fill="#E6F7FF"/>
<rect width="25" height="25" rx="6" fill="#E6F7FF"/>
<path d="M6.41028 19.8718V5.12817H8.5728L16.9373 16.0523L15.8152 16.27V5.12817H18.5898V19.8718H16.4068L8.16478 8.86849L9.18483 8.6508V19.8718H6.41028Z" fill="#141414"/>
</svg>
